<mxfile host="app.diagrams.net" agent="Mozilla/5.0 (X11; Linux x86_64) AppleWebKit/537.36 (KHTML, like Gecko) Chrome/130.0.0.0 Safari/537.36" version="24.8.4">
  <diagram name="第 1 页" id="-rBXWYMA8vQO4I_JBFDj">
    <mxGraphModel dx="3108" dy="1084" grid="1" gridSize="10" guides="1" tooltips="1" connect="1" arrows="1" fold="1" page="1" pageScale="1" pageWidth="827" pageHeight="1169" math="0" shadow="0">
      <root>
        <mxCell id="0" />
        <mxCell id="1" parent="0" />
        <mxCell id="SSyrkYJbgdm2HnbKpwL7-25" style="edgeStyle=orthogonalEdgeStyle;rounded=0;orthogonalLoop=1;jettySize=auto;html=1;exitX=1;exitY=0.5;exitDx=0;exitDy=0;entryX=0;entryY=0.5;entryDx=0;entryDy=0;" edge="1" parent="1" source="SSyrkYJbgdm2HnbKpwL7-8" target="SSyrkYJbgdm2HnbKpwL7-10">
          <mxGeometry relative="1" as="geometry" />
        </mxCell>
        <mxCell id="SSyrkYJbgdm2HnbKpwL7-8" value="" style="rounded=0;whiteSpace=wrap;html=1;" vertex="1" parent="1">
          <mxGeometry x="-1440" y="470" width="235" height="140" as="geometry" />
        </mxCell>
        <mxCell id="SSyrkYJbgdm2HnbKpwL7-24" style="edgeStyle=orthogonalEdgeStyle;rounded=0;orthogonalLoop=1;jettySize=auto;html=1;exitX=0.5;exitY=0;exitDx=0;exitDy=0;entryX=0;entryY=0.5;entryDx=0;entryDy=0;" edge="1" parent="1" source="SSyrkYJbgdm2HnbKpwL7-1" target="SSyrkYJbgdm2HnbKpwL7-8">
          <mxGeometry relative="1" as="geometry" />
        </mxCell>
        <mxCell id="SSyrkYJbgdm2HnbKpwL7-1" value="" style="rounded=0;whiteSpace=wrap;html=1;rotation=90;" vertex="1" parent="1">
          <mxGeometry x="-1640" y="455" width="40" height="170" as="geometry" />
        </mxCell>
        <mxCell id="SSyrkYJbgdm2HnbKpwL7-2" value="&lt;b&gt;Patch_embed&lt;/b&gt;" style="text;html=1;align=center;verticalAlign=middle;resizable=0;points=[];autosize=1;strokeColor=none;fillColor=none;rotation=0;" vertex="1" parent="1">
          <mxGeometry x="-1670" y="525" width="100" height="30" as="geometry" />
        </mxCell>
        <mxCell id="SSyrkYJbgdm2HnbKpwL7-3" value="VSSBLock(0)" style="rounded=0;whiteSpace=wrap;html=1;" vertex="1" parent="1">
          <mxGeometry x="-1425" y="495" width="90" height="60" as="geometry" />
        </mxCell>
        <mxCell id="SSyrkYJbgdm2HnbKpwL7-4" value="VSSBLock(1)" style="rounded=0;whiteSpace=wrap;html=1;" vertex="1" parent="1">
          <mxGeometry x="-1305" y="495" width="90" height="60" as="geometry" />
        </mxCell>
        <mxCell id="SSyrkYJbgdm2HnbKpwL7-5" value="&lt;font style=&quot;font-size: 36px;&quot; face=&quot;Times New Roman&quot;&gt;VSSM&lt;/font&gt;" style="text;html=1;align=center;verticalAlign=middle;resizable=0;points=[];autosize=1;strokeColor=none;fillColor=none;" vertex="1" parent="1">
          <mxGeometry x="-1710" y="290" width="120" height="60" as="geometry" />
        </mxCell>
        <mxCell id="SSyrkYJbgdm2HnbKpwL7-9" value="Sequential(0)" style="text;html=1;align=center;verticalAlign=middle;resizable=0;points=[];autosize=1;strokeColor=none;fillColor=none;" vertex="1" parent="1">
          <mxGeometry x="-1367.5" y="570" width="90" height="30" as="geometry" />
        </mxCell>
        <mxCell id="SSyrkYJbgdm2HnbKpwL7-26" style="edgeStyle=orthogonalEdgeStyle;rounded=0;orthogonalLoop=1;jettySize=auto;html=1;exitX=1;exitY=0.5;exitDx=0;exitDy=0;entryX=0;entryY=0.5;entryDx=0;entryDy=0;" edge="1" parent="1" source="SSyrkYJbgdm2HnbKpwL7-10" target="SSyrkYJbgdm2HnbKpwL7-14">
          <mxGeometry relative="1" as="geometry" />
        </mxCell>
        <mxCell id="SSyrkYJbgdm2HnbKpwL7-10" value="" style="rounded=0;whiteSpace=wrap;html=1;" vertex="1" parent="1">
          <mxGeometry x="-1150" y="470" width="235" height="140" as="geometry" />
        </mxCell>
        <mxCell id="SSyrkYJbgdm2HnbKpwL7-11" value="VSSBLock(0)" style="rounded=0;whiteSpace=wrap;html=1;" vertex="1" parent="1">
          <mxGeometry x="-1135" y="495" width="90" height="60" as="geometry" />
        </mxCell>
        <mxCell id="SSyrkYJbgdm2HnbKpwL7-12" value="VSSBLock(1)" style="rounded=0;whiteSpace=wrap;html=1;" vertex="1" parent="1">
          <mxGeometry x="-1015" y="495" width="90" height="60" as="geometry" />
        </mxCell>
        <mxCell id="SSyrkYJbgdm2HnbKpwL7-13" value="Sequential(1)" style="text;html=1;align=center;verticalAlign=middle;resizable=0;points=[];autosize=1;strokeColor=none;fillColor=none;" vertex="1" parent="1">
          <mxGeometry x="-1077.5" y="570" width="90" height="30" as="geometry" />
        </mxCell>
        <mxCell id="SSyrkYJbgdm2HnbKpwL7-27" style="edgeStyle=orthogonalEdgeStyle;rounded=0;orthogonalLoop=1;jettySize=auto;html=1;exitX=0.5;exitY=1;exitDx=0;exitDy=0;entryX=0.5;entryY=0;entryDx=0;entryDy=0;" edge="1" parent="1" source="SSyrkYJbgdm2HnbKpwL7-14" target="SSyrkYJbgdm2HnbKpwL7-20">
          <mxGeometry relative="1" as="geometry" />
        </mxCell>
        <mxCell id="SSyrkYJbgdm2HnbKpwL7-14" value="" style="rounded=0;whiteSpace=wrap;html=1;" vertex="1" parent="1">
          <mxGeometry x="-850" y="465" width="530" height="150" as="geometry" />
        </mxCell>
        <mxCell id="SSyrkYJbgdm2HnbKpwL7-15" value="VSSBLock(0)" style="rounded=0;whiteSpace=wrap;html=1;" vertex="1" parent="1">
          <mxGeometry x="-835" y="490" width="90" height="60" as="geometry" />
        </mxCell>
        <mxCell id="SSyrkYJbgdm2HnbKpwL7-16" value="VSSBLock(1)" style="rounded=0;whiteSpace=wrap;html=1;" vertex="1" parent="1">
          <mxGeometry x="-715" y="490" width="90" height="60" as="geometry" />
        </mxCell>
        <mxCell id="SSyrkYJbgdm2HnbKpwL7-17" value="Sequential(2)" style="text;html=1;align=center;verticalAlign=middle;resizable=0;points=[];autosize=1;strokeColor=none;fillColor=none;" vertex="1" parent="1">
          <mxGeometry x="-630" y="569" width="90" height="30" as="geometry" />
        </mxCell>
        <mxCell id="SSyrkYJbgdm2HnbKpwL7-18" value="VSSBLock(2)" style="rounded=0;whiteSpace=wrap;html=1;" vertex="1" parent="1">
          <mxGeometry x="-570" y="490" width="90" height="60" as="geometry" />
        </mxCell>
        <mxCell id="SSyrkYJbgdm2HnbKpwL7-19" value="VSSBLock(3)" style="rounded=0;whiteSpace=wrap;html=1;" vertex="1" parent="1">
          <mxGeometry x="-450" y="490" width="90" height="60" as="geometry" />
        </mxCell>
        <mxCell id="SSyrkYJbgdm2HnbKpwL7-20" value="" style="rounded=0;whiteSpace=wrap;html=1;" vertex="1" parent="1">
          <mxGeometry x="-702.5" y="680" width="235" height="150" as="geometry" />
        </mxCell>
        <mxCell id="SSyrkYJbgdm2HnbKpwL7-21" value="VSSBLock(0)" style="rounded=0;whiteSpace=wrap;html=1;" vertex="1" parent="1">
          <mxGeometry x="-687.5" y="705" width="90" height="60" as="geometry" />
        </mxCell>
        <mxCell id="SSyrkYJbgdm2HnbKpwL7-22" value="VSSBLock(1)" style="rounded=0;whiteSpace=wrap;html=1;" vertex="1" parent="1">
          <mxGeometry x="-567.5" y="705" width="90" height="60" as="geometry" />
        </mxCell>
        <mxCell id="SSyrkYJbgdm2HnbKpwL7-23" value="Sequential(3)" style="text;html=1;align=center;verticalAlign=middle;resizable=0;points=[];autosize=1;strokeColor=none;fillColor=none;" vertex="1" parent="1">
          <mxGeometry x="-625" y="790" width="90" height="30" as="geometry" />
        </mxCell>
      </root>
    </mxGraphModel>
  </diagram>
</mxfile>
